<?xml version="1.0" standalone="no"?>
<!DOCTYPE svg PUBLIC "-//W3C//DTD SVG 20010904//EN"
 "http://www.w3.org/TR/2001/REC-SVG-20010904/DTD/svg10.dtd">
<svg version="1.0" xmlns="http://www.w3.org/2000/svg"
 width="500.000000pt" height="500.000000pt" viewBox="0 0 500.000000 500.000000"
 preserveAspectRatio="xMidYMid meet">

<g transform="translate(0.000000,500.000000) scale(0.100000,-0.100000)"
fill="#000000" stroke="none">
<path d="M760 2500 l0 -480 1740 0 1740 0 0 480 0 480 -1740 0 -1740 0 0 -480z
m3450 0 l0 -450 -1715 0 -1715 0 0 450 0 450 1715 0 1715 0 0 -450z"/>
<path d="M850 2500 l0 -390 820 0 820 0 0 390 0 390 -820 0 -820 0 0 -390z
m706 8 c45 -110 50 -128 34 -128 -10 0 -23 12 -30 30 -12 29 -15 30 -77 30
-62 0 -64 -1 -74 -30 -7 -19 -18 -30 -29 -30 -20 0 -23 -11 76 228 24 58 42
39 100 -100z m154 17 l0 -115 65 0 c51 0 65 -3 65 -15 0 -12 -16 -15 -80 -15
l-80 0 0 130 c0 109 2 130 15 130 12 0 15 -19 15 -115z m240 -15 c0 -109 -2
-130 -15 -130 -13 0 -15 21 -15 130 0 109 2 130 15 130 13 0 15 -21 15 -130z"/>
<path d="M1462 2541 c-12 -30 -22 -58 -22 -62 0 -5 20 -9 45 -9 52 0 53 4 21
74 l-22 50 -22 -53z"/>
<path d="M2803 2623 c-3 -10 -19 -52 -36 -93 -16 -41 -35 -92 -43 -112 l-13
-38 40 0 c32 0 42 4 46 20 4 16 14 20 49 20 33 0 46 -5 54 -20 8 -15 21 -20
49 -20 l39 0 -51 130 -50 130 -39 0 c-28 0 -40 -5 -45 -17z m61 -105 c10 -39
7 -48 -19 -48 -29 0 -28 -2 -14 39 13 37 24 40 33 9z"/>
<path d="M3010 2611 c0 -29 2 -30 51 -33 l51 -3 -56 -72 c-35 -45 -56 -81 -56
-97 l0 -26 105 0 105 0 0 35 0 35 -50 0 c-27 0 -50 3 -50 6 0 3 23 34 50 69
31 39 50 73 50 89 l0 26 -100 0 -100 0 0 -29z"/>
<path d="M3250 2510 l0 -130 95 0 95 0 0 30 c0 30 -1 30 -55 30 -48 0 -55 2
-55 20 0 17 7 20 45 20 43 0 45 1 45 30 0 29 -2 30 -45 30 -38 0 -45 3 -45 20
0 17 7 20 50 20 49 0 50 1 50 30 l0 30 -90 0 -90 0 0 -130z"/>
<path d="M3480 2510 l0 -130 90 0 90 0 0 30 c0 29 -1 30 -50 30 -43 0 -50 3
-50 20 0 17 7 20 45 20 43 0 45 1 45 30 0 29 -2 30 -45 30 -38 0 -45 3 -45 20
0 17 7 20 50 20 49 0 50 1 50 30 l0 30 -90 0 -90 0 0 -130z"/>
<path d="M3710 2510 l0 -130 40 0 39 0 3 63 3 62 20 -32 c26 -44 62 -45 90 -3
11 16 23 30 28 30 4 0 7 -27 7 -60 l0 -60 35 0 35 0 0 130 0 130 -33 0 c-28 0
-37 -7 -72 -60 -22 -33 -42 -59 -45 -59 -3 0 -23 26 -45 59 -35 53 -44 60 -72
60 l-33 0 0 -130z"/>
</g>
</svg>
